<svg width="72" height="72" viewBox="0 0 72 72" fill="none" xmlns="http://www.w3.org/2000/svg">
<rect width="72" height="72" rx="36" fill="#575B72"/>
<path d="M26.8305 21.9001C25.9042 21.8997 24.9296 22.0341 23.9041 22.3334L23.895 22.3365C23.8846 22.3398 23.8743 22.3434 23.864 22.3473C23.8559 22.3503 23.8477 22.3535 23.8397 22.3568C23.8298 22.3611 23.82 22.3657 23.8103 22.3704C23.8022 22.3743 23.7942 22.3783 23.7863 22.3825C23.7765 22.3879 23.7668 22.3936 23.7574 22.3996C23.7501 22.404 23.743 22.4086 23.736 22.4133C23.7267 22.4197 23.7177 22.4264 23.7088 22.4333C23.7019 22.4385 23.6952 22.4438 23.6885 22.4493C23.6801 22.4565 23.6718 22.464 23.6637 22.4716C23.6574 22.4775 23.6512 22.4836 23.6452 22.4898C23.6372 22.498 23.6295 22.5064 23.622 22.5151C23.6168 22.5211 23.6116 22.5272 23.6066 22.5334C23.5992 22.5428 23.5921 22.5525 23.5852 22.5623C23.5806 22.5688 23.5761 22.5754 23.5718 22.582C23.5656 22.5917 23.5598 22.6015 23.5542 22.6115C23.55 22.6188 23.546 22.6262 23.5421 22.6336C23.537 22.6439 23.5321 22.6542 23.5275 22.6647C23.5241 22.6723 23.5209 22.6799 23.5178 22.6876C23.5138 22.6982 23.5101 22.7089 23.5067 22.7196C23.504 22.7276 23.5014 22.7357 23.499 22.7438C23.495 22.758 23.4914 22.7723 23.4884 22.7868L22.0889 29.7844C22.0621 29.9185 22.0825 30.0578 22.1465 30.1787C22.2106 30.2996 22.3144 30.3946 22.4405 30.4478L27.5669 32.6089L29.5432 42.7422L22.2598 44.3243C22.1284 44.3525 22.0106 44.4245 21.9254 44.5285C21.8403 44.6324 21.7929 44.7622 21.791 44.8965L21.7247 49.6759C21.7234 49.7699 21.7444 49.863 21.7861 49.9473C21.8278 50.0316 21.8889 50.1048 21.9645 50.1609C22.04 50.2169 22.1278 50.2543 22.2205 50.2698C22.3133 50.2853 22.4085 50.2785 22.4981 50.25L31.6524 47.3242L33.16 47.0319C33.1711 47.0321 33.1821 47.0328 33.1932 47.0328C33.8154 47.0328 34.4014 46.7364 34.8107 46.2533C35.2196 45.7706 35.4335 45.1414 35.4329 44.4933V44.4917C35.4333 44.0808 35.3472 43.6769 35.1801 43.3133L33.6005 35.1526L41.4614 38.4664L41.4711 38.47C41.4823 38.4744 41.4937 38.4785 41.5052 38.4823C41.5124 38.4847 41.5197 38.487 41.527 38.4892C41.5383 38.4924 41.5496 38.4953 41.561 38.4978C41.5696 38.4998 41.5783 38.5016 41.587 38.5032C41.597 38.505 41.6071 38.5065 41.6172 38.5078C41.6272 38.509 41.6372 38.5101 41.6473 38.5109C41.6562 38.5115 41.6652 38.5119 41.6742 38.5121C41.6854 38.5125 41.6967 38.5126 41.7079 38.5124C41.7155 38.5123 41.723 38.5121 41.7306 38.5118L46.9435 38.1818C47.0493 38.1748 47.1513 38.1395 47.2389 38.0798C47.3265 38.02 47.3965 37.9379 47.4416 37.8419L50.5992 31.1573L50.5997 31.1564V31.1563L50.601 31.1533C50.6376 31.0775 50.6578 30.9948 50.66 30.9106C50.6623 30.8264 50.6466 30.7427 50.614 30.6651C50.5815 30.5874 50.5327 30.5176 50.4711 30.4602C50.4095 30.4028 50.3364 30.3592 50.2566 30.3323C49.7861 30.0738 49.2823 29.8814 48.7594 29.7605L29.5172 22.293C29.5008 22.2867 29.484 22.2811 29.4671 22.2763C28.6348 22.0361 27.7568 21.9006 26.8305 21.9001ZM25.1838 22.7578C25.2628 22.7573 25.3412 22.7726 25.4142 22.8028L43.5861 30.0859C43.716 30.1379 43.8233 30.2341 43.8893 30.3574C43.9552 30.4808 43.9756 30.6234 43.9467 30.7603C43.9294 30.7894 43.9146 30.8199 43.9025 30.8516L43.8503 30.9809C43.7732 31.0899 43.6616 31.1697 43.5336 31.2075C43.4056 31.2453 43.2686 31.239 43.1447 31.1894L24.9729 23.9044C24.8445 23.8541 24.7376 23.7607 24.6706 23.6402C24.6036 23.5197 24.5805 23.3797 24.6055 23.2441C24.6304 23.1085 24.7018 22.9858 24.8073 22.8971C24.9129 22.8084 25.0459 22.7591 25.1838 22.7578ZM47.5155 30.7808C47.7905 30.7831 48.0624 30.8125 48.3323 30.8685L49.2535 31.226L47.7742 34.3581C47.8312 34.1045 47.8603 33.853 47.8576 33.6172C47.8514 33.0714 47.6739 32.6203 47.3673 32.3945C47.0607 32.1687 46.6368 32.177 46.2189 32.4101C46.1157 32.4676 46.0123 32.5391 45.9122 32.6211C45.9506 32.5697 45.9866 32.5136 46.0177 32.4531C46.1062 32.2808 46.1582 32.0811 46.1564 31.9044C46.1544 31.7272 46.0974 31.5767 45.9962 31.5C45.9471 31.4621 45.8864 31.4421 45.8244 31.4434C45.7612 31.4444 45.693 31.4641 45.6271 31.5019C45.4954 31.5777 45.3721 31.7219 45.2834 31.8946C45.1948 32.0673 45.1427 32.2663 45.1448 32.4434C45.1467 32.6205 45.2039 32.7711 45.3049 32.8478C45.406 32.9244 45.5423 32.9195 45.674 32.8438C45.4605 33.0664 45.2649 33.3376 45.1058 33.6388C44.8178 34.1836 44.6542 34.8137 44.6605 35.3594C44.6668 35.9052 44.848 36.3582 45.1546 36.5841C45.4611 36.8099 45.8811 36.7997 46.299 36.5666C46.5601 36.4208 46.8171 36.1904 47.0434 35.9052L46.5177 37.0177L42.5959 37.2677L44.9242 31.4933C45.8389 31.0092 46.6912 30.7738 47.5156 30.7808L47.5155 30.7808ZM28.8857 33.1648L29.8865 33.5868L31.7448 42.309C31.5556 42.2509 31.3588 42.2212 31.1609 42.2209C30.9907 42.2209 30.8234 42.2438 30.6617 42.2857L28.8857 33.1648ZM31.2202 34.1491L32.2838 34.5974L33.7213 42.0243C33.5493 41.9768 33.3718 41.9525 33.1934 41.9521C33.0907 41.9521 32.9892 41.9608 32.8893 41.9764L31.2203 34.1489L31.2202 34.1491ZM33.1933 43.1438C33.4347 43.1438 33.7094 43.2674 33.9103 43.5045C34.1112 43.7416 34.2499 44.1226 34.2493 44.4917C34.2493 44.4922 34.2493 44.4928 34.2493 44.4933C34.2499 44.8624 34.1112 45.2433 33.9104 45.4805C33.8202 45.5872 33.7101 45.6751 33.5861 45.7394L33.2022 45.8138C33.3338 45.4842 33.4012 45.1261 33.4008 44.7621V44.7605C33.4012 44.5266 33.373 44.2934 33.3169 44.0663C33.3185 44.0192 33.3144 43.972 33.3049 43.9258L33.1389 43.1472C33.157 43.1458 33.1754 43.1438 33.1933 43.1438ZM31.1609 43.4125C31.4024 43.4125 31.6772 43.5361 31.8781 43.7733C32.079 44.0105 32.2175 44.3914 32.217 44.7605C32.217 44.761 32.217 44.7615 32.217 44.7621C32.2175 45.1311 32.0789 45.5121 31.878 45.7493C31.6771 45.9864 31.4024 46.1101 31.1609 46.1101C30.9194 46.1101 30.6463 45.9864 30.4454 45.7493C30.2445 45.5121 30.1043 45.1311 30.1048 44.7621C30.1048 44.7615 30.1048 44.761 30.1048 44.7605C30.1043 44.3914 30.2445 44.0105 30.4454 43.7733C30.6463 43.5361 30.9194 43.4125 31.1609 43.4125H31.1609ZM29.0049 44.0744C28.9501 44.299 28.9226 44.5293 28.9229 44.7605V44.7621C28.9223 45.4102 29.136 46.0394 29.545 46.5221C29.5974 46.584 29.6526 46.6427 29.7105 46.6981L22.9239 48.8672L22.9728 45.3847L29.0049 44.0743V44.0744Z" fill="white"/>
</svg>
