<svg width="24" height="24" viewBox="0 0 24 24" fill="none" xmlns="http://www.w3.org/2000/svg">
	<path d="M4.64394 4.8H20.5439C22.0439 4.8 22.7999 5.508 22.7999 6.948V17.052C22.7999 18.48 22.0439 19.2 20.5439 19.2H4.64394C3.14394 19.2 2.38794 18.48 2.38794 17.052V6.948C2.38794 5.508 3.14394 4.8 4.64394 4.8ZM12.5879 15.12L20.6759 8.484C20.9639 8.244 21.1919 7.692 20.8319 7.2C20.4839 6.708 19.8479 6.696 19.4279 6.996L12.5879 11.628L5.75994 6.996C5.33994 6.696 4.70394 6.708 4.35594 7.2C3.99594 7.692 4.22394 8.244 4.51194 8.484L12.5879 15.12Z" fill="#9E9E9E"/>
</svg>
