<svg width="24" height="24" viewBox="0 0 24 24" fill="none" xmlns="http://www.w3.org/2000/svg">
<path d="M12.0003 0C8.07611 0 4.86011 3.2064 4.86011 7.11984C4.86011 8.63616 5.34443 10.0454 6.16403 11.2037L11.1289 19.7868C11.8242 20.6952 12.2864 20.5226 12.8646 19.7388L18.3409 10.4196C18.4513 10.2194 18.5382 10.0063 18.6138 9.78864C18.9612 8.94176 19.1399 8.0352 19.1399 7.11984C19.1401 3.2064 15.9251 0 12.0003 0ZM12.0003 3.336C14.1138 3.336 15.7943 5.01264 15.7943 7.11984C15.7943 9.22704 14.1138 10.9032 12.0003 10.9032C9.88715 10.9032 8.20595 9.22752 8.20595 7.12008C8.20595 5.01264 9.88715 3.33624 12.0001 3.33624" fill="#9E9E9E"/>
<path d="M16.539 11.7379L16.5275 11.7682L16.5376 11.7406L16.539 11.7379ZM8.16134 16.5737C4.7711 17.0527 2.3999 18.1987 2.3999 19.8857C2.3999 22.158 6.36182 24 11.9999 24C17.638 24 21.5999 22.158 21.5999 19.8857C21.5999 18.1987 19.2289 17.0527 15.8389 16.5737L15.3693 17.3734C17.9243 17.7278 19.6799 18.4728 19.6799 19.3373C19.6799 20.5493 16.2414 21.5316 11.9999 21.5316C7.75838 21.5316 4.3199 20.5493 4.3199 19.3373C4.31966 18.4757 6.06374 17.7314 8.6267 17.3755L8.16134 16.5737Z" fill="#9E9E9E"/>
</svg>
