<svg width="24" height="24" viewBox="0 0 24 24" fill="none" xmlns="http://www.w3.org/2000/svg">
<path d="M7.78119 16.1837C10.6843 19.0864 14.22 21.3266 17.1026 21.3266C18.3986 21.3266 19.5335 20.8744 20.4476 19.8699C20.9799 19.2771 21.3116 18.5841 21.3116 17.9014C21.3116 17.3991 21.1205 16.917 20.6388 16.5754L17.5646 14.3854C17.0928 14.064 16.701 13.9033 16.3393 13.9033C15.8773 13.9033 15.4753 14.1647 15.0133 14.6164L14.3002 15.3197C14.2503 15.3703 14.1909 15.4105 14.1255 15.4381C14.06 15.4656 13.9898 15.48 13.9188 15.4804C13.758 15.4804 13.617 15.4204 13.5069 15.3699C12.894 15.0386 11.8295 14.1244 10.8348 13.14C9.85033 12.1556 8.93619 11.091 8.61476 10.4683C8.54553 10.3454 8.5077 10.2073 8.50462 10.0663C8.50462 9.936 8.54448 9.80486 8.65505 9.69472L9.3579 8.96186C9.81048 8.49943 10.0715 8.09743 10.0715 7.63543C10.0715 7.27415 9.91076 6.88243 9.57948 6.41015L7.41948 3.36643C7.06805 2.88429 6.57605 2.67343 6.03348 2.67343C5.37048 2.67343 4.67748 2.97472 4.09505 3.54772C3.12048 4.482 2.68848 5.63657 2.68848 6.912C2.68848 9.795 4.88833 13.2909 7.78119 16.1837Z" fill="#9E9E9E"/>
</svg>
