<svg width="24" height="24" viewBox="0 0 24 24" fill="none" xmlns="http://www.w3.org/2000/svg">
<path d="M17.25 12C17.8467 12 18.419 12.2371 18.841 12.659C19.2629 13.081 19.5 13.6533 19.5 14.25V15C19.5 17.9565 16.71 21 12 21C7.29 21 4.5 17.9565 4.5 15V14.25C4.5 13.6533 4.73705 13.081 5.15901 12.659C5.58097 12.2371 6.15326 12 6.75 12H17.25ZM12 2.25C13.094 2.25 14.1432 2.6846 14.9168 3.45818C15.6904 4.23177 16.125 5.28098 16.125 6.375C16.125 7.46902 15.6904 8.51823 14.9168 9.29182C14.1432 10.0654 13.094 10.5 12 10.5C10.906 10.5 9.85677 10.0654 9.08318 9.29182C8.3096 8.51823 7.875 7.46902 7.875 6.375C7.875 5.28098 8.3096 4.23177 9.08318 3.45818C9.85677 2.6846 10.906 2.25 12 2.25Z" fill="#9E9E9E"/>
</svg>
